<svg width="431" height="111" viewBox="0 0 431 111" fill="none" xmlns="http://www.w3.org/2000/svg">
<path d="M70.2314 0.430664C71.2621 0.352289 72.6607 0.429385 73.7334 0.869141C74.2655 1.08736 74.6907 1.38368 74.9619 1.76758C75.2269 2.14267 75.3693 2.635 75.2822 3.30176V3.30273C75.2365 3.65557 75.091 3.83086 74.9053 3.93945C74.6918 4.06411 74.3825 4.12422 73.9814 4.13965C73.5793 4.1551 73.1633 4.12554 72.7236 4.11328C72.3638 4.10325 71.9752 4.10433 71.6396 4.18262L71.499 4.2207C71.1062 4.34589 70.556 4.60031 70.2266 4.97754C70.0554 5.1735 69.9116 5.44146 69.9375 5.76367C69.9635 6.086 70.152 6.36622 70.4346 6.60254L70.4404 6.60742C70.657 6.78131 70.9195 6.86583 71.168 6.90918C71.4181 6.95283 71.6849 6.96032 71.9355 6.95508C72.1837 6.94988 72.4438 6.93169 72.6602 6.9209C72.888 6.90954 73.0708 6.90541 73.21 6.91992L73.2158 6.9209C73.885 6.98105 74.6831 7.20077 75.3057 7.51562V7.5166C76.0313 7.8846 76.5121 8.58302 76.6377 9.3125C76.7615 10.0322 76.5398 10.7643 75.8779 11.2559C74.9175 11.9664 73.9844 12.371 72.9219 12.0352H72.9209C72.5365 11.9146 72.1665 11.7458 71.7637 11.5654C71.4676 11.4328 71.1549 11.2945 70.8252 11.1787L70.4893 11.0713C69.2994 10.7302 67.9359 10.5418 66.665 10.6953C66.4935 10.7161 66.118 10.8072 65.7021 10.9355C65.2781 11.0664 64.7743 11.2473 64.3457 11.46C64.1319 11.5661 63.9254 11.6855 63.7539 11.8174C63.5892 11.9441 63.4202 12.1099 63.3311 12.3193C63.2288 12.5598 63.2481 12.8253 63.4111 13.0586C63.5537 13.2624 63.787 13.4146 64.0605 13.5381C64.3522 13.6716 64.6777 13.6878 64.9766 13.666C65.279 13.644 65.6012 13.5791 65.9014 13.5166C66.2114 13.452 66.5005 13.3889 66.7744 13.3545C67.0473 13.3202 67.2712 13.3189 67.4482 13.3604V13.3613C68.4687 13.6126 69.7833 14.3119 70.4863 15.1729C70.8332 15.5977 70.9995 16.022 70.9648 16.4258C70.9349 16.7731 70.7497 17.1766 70.2627 17.6113L70.0352 17.7998C69.5933 18.1407 69.0686 18.1912 68.4531 18.1123C68.1444 18.0727 67.8304 18.0029 67.5039 17.9297C67.1851 17.8582 66.8487 17.7824 66.5283 17.7432H66.5293C65.4194 17.6044 64.1416 17.8102 63.1289 18.334L63.127 18.335C60.383 19.7728 59.9151 22.9224 59.6836 25.4287V25.4316C59.6427 25.9143 59.5298 27.147 59.2178 28.0488C59.0554 28.5179 58.8739 28.7886 58.7158 28.8838C58.6564 28.9194 58.5984 28.9319 58.5195 28.9141C58.4276 28.8932 58.2847 28.8249 58.0889 28.6465L58.0869 28.6455L58.0225 28.5664C57.9611 28.4688 57.9099 28.3129 57.875 28.084C57.8533 27.9416 57.8406 27.7916 57.8291 27.6377C57.8181 27.4904 57.807 27.3293 57.7891 27.1904V27.1865L57.6982 26.4668C57.6142 25.7467 57.5475 25.0255 57.4688 24.291C57.3905 23.5614 57.3005 22.8249 57.1699 22.0879L57.0244 21.3516C56.6872 19.7527 56.482 18.0112 55.3105 16.5459L55.0635 16.2568C54.3188 15.4368 53.4656 15.0672 52.5781 14.877C51.7275 14.6947 50.7684 14.6689 49.9111 14.5703L49.9053 14.5693L49.5488 14.5322C48.7549 14.4437 48.2207 14.3199 47.7529 13.7598L47.752 13.7578L47.6992 13.6904C47.4531 13.3388 47.4462 12.8223 47.6816 12.2197L47.6836 12.2168C47.8638 11.7461 48.3077 11.5204 48.9863 11.4473C49.3271 11.4106 49.6876 11.4167 50.043 11.4385L51.0684 11.5225C51.1691 11.5305 51.3219 11.5696 51.5332 11.6367C51.6348 11.669 51.742 11.7048 51.8555 11.7432C51.9678 11.7811 52.0867 11.8216 52.2051 11.8594C52.4387 11.934 52.6915 12.0062 52.9287 12.041C53.1556 12.0743 53.4321 12.0834 53.6758 11.9707L53.6748 11.9697C54.1575 11.7468 54.2689 11.2377 54.2666 10.8691C54.2644 10.5324 54.1729 10.1734 54.0312 9.90137L53.9678 9.79004C53.3432 8.80346 52.2573 8.41644 51.1924 8.32129C50.1231 8.22582 48.9975 8.41475 48.1621 8.6582H48.1611C47.6664 8.80336 47.1799 8.97178 46.7285 9.11719C46.2694 9.26509 45.8329 9.39413 45.4004 9.47559C44.6012 9.62603 43.818 9.61461 42.9639 9.24512L42.792 9.16699C41.9979 8.77673 41.5492 8.20417 41.377 7.56738C41.2027 6.92315 41.2991 6.16556 41.6904 5.39648C42.3607 4.09938 43.7199 3.33103 45.3076 2.98047C46.891 2.63092 48.6339 2.71382 49.9561 3.05762V3.05859C52.9461 3.85095 55.5105 6.0455 57.4707 8.46777V8.4668C57.5196 8.52749 57.6064 8.66319 57.7363 8.86719C57.8589 9.05956 58.0081 9.29469 58.1641 9.52051C58.3185 9.74413 58.4897 9.97389 58.6602 10.1533C58.7453 10.243 58.8399 10.3299 58.9404 10.3984C59.0363 10.4638 59.1707 10.5348 59.3311 10.5459L59.3877 10.5498L59.4434 10.5381L59.5566 10.5137L59.5879 10.5068L59.6172 10.4961C59.8822 10.3935 60.0592 10.1419 60.1719 9.94727C60.2971 9.7309 60.4057 9.47069 60.498 9.22266C60.5911 8.97277 60.6744 8.71653 60.7432 8.50879C60.8169 8.28605 60.8662 8.14471 60.8984 8.08008L60.9004 8.07617C62.8654 4.05042 65.6216 0.785433 70.2314 0.430664Z" fill="white" stroke="white" stroke-width="0.807291"/>
<path d="M113.706 23.6671C113.875 23.6014 114.016 23.6019 114.147 23.7335C114.476 24.0624 114.745 24.4527 114.966 24.877C115.099 25.1321 115.215 25.3993 115.316 25.6729C115.35 25.7638 115.382 25.8553 115.413 25.9473C115.628 26.5933 115.771 27.2628 115.878 27.8799C116.031 28.7966 116.161 29.7464 116.118 30.6788C116.114 30.772 116.108 30.8652 116.101 30.9581C116.085 31.1437 116.061 31.3284 116.029 31.5118C116.013 31.6036 115.995 31.6951 115.975 31.7862C115.933 31.9682 115.882 32.1486 115.821 32.3272L115.706 32.6241C115.669 32.7146 115.628 32.8039 115.587 32.8926C115.581 32.9047 115.576 32.9168 115.57 32.9288C115.532 33.0097 115.492 33.0897 115.45 33.169L115.302 33.4346C115.288 33.4583 115.275 33.4824 115.261 33.5059C115.223 33.5687 115.184 33.6309 115.145 33.6924C115.124 33.7238 115.103 33.7542 115.082 33.7852C115.055 33.8261 115.027 33.867 114.999 33.9073C114.97 33.9493 114.94 33.991 114.909 34.0323C114.791 34.1929 114.666 34.3493 114.533 34.4991L114.281 34.7657C114.117 34.9345 113.942 35.1032 113.761 35.2686C113.736 35.2916 113.71 35.3142 113.685 35.337C113.618 35.3969 113.55 35.4562 113.481 35.5147C113.453 35.539 113.424 35.563 113.396 35.587C113.33 35.6415 113.264 35.6945 113.197 35.7471C113.159 35.7773 113.121 35.8076 113.083 35.837C113.021 35.8843 112.959 35.9305 112.896 35.9756C112.862 36.0006 112.828 36.0256 112.793 36.0499C112.717 36.1028 112.641 36.1531 112.564 36.2022C112.542 36.2168 112.52 36.232 112.497 36.2462C112.395 36.3099 112.294 36.3712 112.191 36.4268L111.91 36.5733C111.774 36.6416 111.635 36.7043 111.496 36.7676C111.371 36.8245 111.246 36.8802 111.12 36.9346C109.966 37.4325 108.775 37.8585 107.838 38.7296C107.804 38.7611 107.769 38.7915 107.735 38.8243C107.696 38.8633 107.659 38.903 107.623 38.9424C107.552 39.0215 107.489 39.1011 107.434 39.1817C107.202 39.5196 107.106 39.8694 107.107 40.2198C107.111 41.0808 107.708 41.9453 108.355 42.6417C109.486 43.8486 110.592 45.043 111.517 46.3965C111.73 46.709 111.934 47.0299 112.126 47.3614C112.224 47.5287 112.32 47.6983 112.413 47.8702C112.599 48.2135 112.777 48.5656 112.945 48.9249C113.114 49.284 113.273 49.6505 113.425 50.0225C113.501 50.2086 113.574 50.3963 113.646 50.585C114.461 52.7355 115.008 55.0457 115.354 57.2344C115.424 57.6717 115.484 58.1041 115.538 58.5294C115.829 60.8342 115.9 62.9311 115.831 64.4639C115.783 65.5972 115.673 66.7274 115.502 67.8487C115.23 69.6796 114.834 71.4916 114.331 73.2715C114.248 73.5656 114.163 73.8591 114.074 74.1514C114.011 74.3576 113.947 74.5634 113.882 74.7686C113.554 75.7943 113.191 76.8079 112.794 77.8067C112.512 78.5195 112.206 79.2252 111.88 79.921C111.544 80.6384 111.187 81.3451 110.81 82.0372C110.58 82.4579 110.343 82.8745 110.1 83.2872C109.514 84.2811 108.89 85.2515 108.228 86.1954C107.29 87.5311 106.278 88.8146 105.196 90.0391C104.59 90.7246 103.957 91.4127 103.305 92.0967C103.214 92.1917 103.124 92.2871 103.032 92.3819C102.985 92.4311 102.937 92.4802 102.89 92.5294C102.753 92.6697 102.616 92.8096 102.479 92.9493C102.385 93.0437 102.291 93.1375 102.197 93.2315C102.104 93.3247 102.011 93.418 101.917 93.5108C101.821 93.6058 101.725 93.7005 101.628 93.795C101.536 93.8844 101.445 93.9737 101.353 94.0626C101.241 94.1698 101.13 94.2764 101.018 94.3829C100.926 94.4695 100.835 94.5556 100.743 94.6417C100.658 94.7211 100.573 94.8001 100.488 94.879C100.368 94.9902 100.248 95.1009 100.127 95.211C100.042 95.2885 99.9566 95.3656 99.8711 95.4424C99.7859 95.5191 99.7009 95.5959 99.6152 95.6719C99.4785 95.7934 99.3409 95.9135 99.2031 96.0333C99.1435 96.0851 99.0842 96.1371 99.0244 96.1885C98.8916 96.3029 98.7586 96.4167 98.625 96.5294C98.5378 96.6029 98.4499 96.6754 98.3623 96.7481C98.2442 96.8462 98.1265 96.9444 98.0078 97.0411C97.9161 97.1157 97.8235 97.189 97.7314 97.2628C97.6183 97.3535 97.5053 97.444 97.3916 97.5333C97.3088 97.5982 97.2256 97.6624 97.1426 97.7266C97.0128 97.827 96.8833 97.9271 96.7529 98.0255C96.696 98.0684 96.6381 98.1099 96.5811 98.1524C96.226 98.4171 95.8703 98.6759 95.5117 98.9239C91.5485 101.666 87.0131 104.155 82.4863 105.848C82.4811 105.85 82.4759 105.852 82.4707 105.854C81.7173 106.133 80.9533 106.403 80.1807 106.662C79.0218 107.051 77.8436 107.417 76.6523 107.757C75.8583 107.984 75.0585 108.199 74.2549 108.402C73.4511 108.606 72.6435 108.798 71.834 108.978C69.0006 109.607 66.144 110.087 63.3467 110.396L62.2471 110.505C61.8827 110.538 61.5174 110.568 61.1514 110.596C61.0915 110.6 61.0316 110.603 60.9717 110.607C60.6902 110.628 60.4083 110.648 60.126 110.665C59.9309 110.677 59.7355 110.687 59.54 110.697C59.3751 110.706 59.2101 110.715 59.0449 110.723C58.8784 110.73 58.7117 110.736 58.5449 110.742C58.3302 110.75 58.1154 110.758 57.9004 110.765C57.7836 110.768 57.6667 110.771 57.5498 110.773C57.3049 110.779 57.0598 110.785 56.8145 110.788C56.6963 110.79 56.5782 110.79 56.46 110.791C56.2059 110.793 55.9517 110.795 55.6973 110.795C55.5717 110.795 55.446 110.794 55.3203 110.793C55.1065 110.791 54.8927 110.789 54.6787 110.785C54.4981 110.782 54.3174 110.779 54.1367 110.774C53.9603 110.77 53.7839 110.765 53.6074 110.76C53.418 110.754 53.2286 110.748 53.0391 110.74C52.8714 110.734 52.7038 110.726 52.5361 110.718C52.3386 110.709 52.141 110.699 51.9434 110.689C51.7575 110.678 51.5716 110.667 51.3857 110.655C51.2243 110.645 51.0628 110.635 50.9014 110.624C50.6598 110.607 50.4183 110.589 50.1768 110.569C50.0635 110.56 49.9502 110.552 49.8369 110.542C49.5947 110.522 49.3525 110.5 49.1104 110.477C48.9733 110.464 48.8362 110.45 48.6992 110.437C48.4702 110.413 48.2415 110.388 48.0127 110.362C47.877 110.347 47.7411 110.333 47.6055 110.317C47.4103 110.295 47.2155 110.27 47.0205 110.245C46.8428 110.223 46.6649 110.202 46.4873 110.178C46.1328 110.13 45.7786 110.081 45.4248 110.028C44.8268 109.939 44.23 109.842 43.6348 109.736C43.3372 109.684 43.0399 109.63 42.7432 109.573C42.1495 109.46 41.5576 109.339 40.9678 109.21C40.673 109.146 40.3787 109.079 40.085 109.011C38.0288 108.532 36.0008 107.955 34.0166 107.278C32.0322 106.602 30.0915 105.827 28.2109 104.95C27.405 104.575 26.6099 104.181 25.8271 103.768C15.1304 98.1244 6.72212 88.9921 3.80078 76.0479C3.74353 75.7946 3.68953 75.5419 3.6377 75.2901C3.56865 74.9547 3.50388 74.6208 3.44434 74.2881C3.3101 73.5382 3.20073 72.7952 3.11426 72.0596C4.88963 70.8426 6.91096 70.0737 8.94434 69.3067C10.994 68.5358 13.2881 68.0181 15.46 67.8018C18.0644 67.5574 20.6785 67.8301 23.1982 68.46C25.1163 68.9395 26.9875 69.6073 28.8115 70.3594C35.3461 73.0391 41.4204 76.3397 48.585 77.0167C50.0422 77.1483 51.4998 77.2044 52.957 77.1856C54.8186 77.1573 56.6704 76.7339 58.2969 75.8126C58.9456 75.4459 59.6983 74.9855 60.2061 74.4307C60.5351 74.0641 61.0238 73.5658 60.7422 73.0489C60.4131 72.4565 59.6322 72.9548 59.2373 73.1993C56.0405 75.1361 52.1289 74.2337 48.8193 73.0772C46.1679 72.1558 43.7606 70.6509 41.457 69.0714C39.5861 67.7927 37.7618 66.4484 35.8721 65.1885C33.6343 63.6936 31.2744 62.3673 28.7734 61.3331C26.8931 60.5622 24.7965 60.0173 22.7939 59.6788C20.0391 59.2087 17.2369 59.2269 14.4727 59.6124C9.98012 60.2295 5.58808 62.294 2.92285 66.001C2.93618 65.771 2.95169 65.5418 2.96973 65.3135C2.97604 65.2337 2.98237 65.1539 2.98926 65.0743C2.99314 65.0294 2.99593 64.9844 3 64.9395C3.00964 64.8332 3.02059 64.7271 3.03125 64.6212C3.03857 64.5485 3.04592 64.4759 3.05371 64.4034C3.0616 64.33 3.06975 64.2568 3.07812 64.1837C3.12758 63.7518 3.18565 63.3234 3.25195 62.8985C3.28941 62.6585 3.32932 62.4195 3.37207 62.1817C3.4166 61.934 3.46445 61.6877 3.51465 61.4424C3.53006 61.3671 3.54558 61.2919 3.56152 61.2169C3.57793 61.1396 3.59436 61.0624 3.61133 60.9854C3.63001 60.9007 3.64861 60.816 3.66797 60.7315C3.67903 60.6832 3.69086 60.6352 3.70215 60.587C3.76665 60.3116 3.83462 60.0378 3.90625 59.7657C3.91922 59.7164 3.93308 59.6674 3.94629 59.6182C4.01911 59.3471 4.09499 59.0775 4.1748 58.8096C4.18101 58.7888 4.18711 58.7679 4.19336 58.7471C4.37 58.1589 4.56286 57.5786 4.77246 57.0069C4.78264 56.9791 4.79346 56.9516 4.80371 56.9239C4.87803 56.723 4.95686 56.5241 5.03516 56.3253C5.07957 56.2125 5.12326 56.0995 5.16895 55.9874C5.24043 55.8119 5.31411 55.6377 5.38867 55.4639C5.44074 55.3426 5.49234 55.2212 5.5459 55.1006C5.61866 54.9369 5.69404 54.7746 5.76953 54.6124C5.82646 54.49 5.88294 54.3676 5.94141 54.2462C6.01723 54.0886 6.09545 53.9325 6.17383 53.7764C6.23947 53.6458 6.30562 53.5154 6.37305 53.3858C6.4472 53.2432 6.52235 53.1013 6.59863 52.96C6.6725 52.8232 6.74642 52.6865 6.82227 52.5508C6.90528 52.4024 6.99081 52.2555 7.07617 52.1085C7.14095 51.9969 7.20536 51.8852 7.27148 51.7745C7.36695 51.6146 7.46427 51.456 7.5625 51.2979C7.63368 51.1834 7.70472 51.0688 7.77734 50.9551C7.86828 50.8129 7.96152 50.6721 8.05469 50.5313C8.14118 50.4006 8.22801 50.2701 8.31641 50.1407C8.3987 50.0202 8.48247 49.9007 8.56641 49.7813C8.65824 49.6507 8.74998 49.52 8.84375 49.3907C8.94144 49.256 9.04085 49.1226 9.14062 48.9893C9.23154 48.8679 9.32339 48.7472 9.41602 48.627C9.51327 48.5008 9.61085 48.3749 9.70996 48.2501C9.80222 48.1339 9.8954 48.0184 9.98926 47.9034C10.092 47.7775 10.1962 47.6528 10.3008 47.5284C10.4025 47.4073 10.5049 47.2867 10.6084 47.1671C10.7107 47.0488 10.814 46.9314 10.918 46.8145C11.019 46.7009 11.121 46.588 11.2236 46.4756C11.3384 46.3501 11.4545 46.2256 11.5713 46.1016C11.6674 45.9996 11.7639 45.8979 11.8613 45.7969C11.9789 45.6751 12.0973 45.5539 12.2168 45.4337C12.3334 45.3163 12.451 45.1999 12.5693 45.084C12.6662 44.9893 12.7633 44.8946 12.8613 44.8008C12.9972 44.6709 13.1343 44.542 13.2725 44.4141C13.3755 44.3187 13.4797 44.2243 13.584 44.1299C13.7096 44.0164 13.8365 43.904 13.9639 43.7921C14.0792 43.6907 14.1947 43.5894 14.3115 43.4893C14.4255 43.3917 14.54 43.2946 14.6553 43.1983C14.7867 43.0885 14.9186 42.9792 15.0518 42.8712C15.1685 42.7763 15.2862 42.6824 15.4043 42.5889C15.5298 42.4895 15.6562 42.391 15.7832 42.293C15.9138 42.1924 16.0456 42.0933 16.1777 41.9942C16.3092 41.8956 16.4403 41.7963 16.5732 41.6993C16.6962 41.6095 16.8211 41.5221 16.9453 41.4337C17.0824 41.3361 17.2198 41.2386 17.3584 41.1426C17.483 41.0564 17.6086 40.9716 17.7344 40.8868C17.8735 40.7929 18.0127 40.6987 18.1533 40.6065C18.2755 40.5264 18.3983 40.4471 18.5215 40.3682C18.6787 40.2676 18.8362 40.167 18.9951 40.0684C19.1154 39.9938 19.2371 39.9212 19.3584 39.8477C19.5056 39.7586 19.6531 39.6695 19.8018 39.5821C19.9321 39.5054 20.0638 39.4308 20.1953 39.3555C20.3599 39.2613 20.5242 39.1664 20.6904 39.0743C20.8045 39.0111 20.9193 38.949 21.0342 38.8868C21.1905 38.8021 21.3471 38.7176 21.5049 38.6348C21.6705 38.5479 21.8378 38.4638 22.0049 38.379C22.1343 38.3133 22.2632 38.2462 22.3936 38.1817C22.5617 38.0985 22.7317 38.0186 22.9014 37.9376C23.0288 37.8767 23.1559 37.8146 23.2842 37.7549C23.4218 37.6909 23.5607 37.6291 23.6992 37.5665C23.8704 37.489 24.0413 37.4103 24.2139 37.335C24.3364 37.2816 24.4598 37.2302 24.583 37.1778C24.7685 37.0989 24.9546 37.0208 25.1416 36.9444C25.2542 36.8984 25.3674 36.8538 25.4805 36.8087C25.6727 36.732 25.8648 36.6542 26.0586 36.5801C26.1817 36.5331 26.3059 36.4885 26.4297 36.4424C26.6209 36.3713 26.8123 36.3001 27.0049 36.2315C27.1462 36.1812 27.2886 36.134 27.4307 36.085C27.6026 36.0258 27.7743 35.9655 27.9473 35.9083C28.0903 35.8609 28.2341 35.8155 28.3779 35.7696C28.5534 35.7135 28.7288 35.6566 28.9053 35.6026C29.0375 35.5621 29.1709 35.5247 29.3037 35.4854C29.5116 35.4239 29.7195 35.3614 29.9287 35.3028C29.9894 35.2858 30.0506 35.2707 30.1113 35.254C30.3606 35.1852 30.6102 35.1165 30.8613 35.0518C30.982 35.0207 31.1035 34.9921 31.2246 34.962C31.774 34.8254 32.3271 34.6961 32.8848 34.5792C32.9828 34.5586 33.0814 34.5405 33.1797 34.5206C33.4151 34.4728 33.6509 34.4251 33.8877 34.3809C33.9851 34.3627 34.0831 34.3477 34.1807 34.3301C34.7588 34.226 35.3403 34.1297 35.9258 34.0469C36.0356 34.0314 36.1458 34.0187 36.2559 34.004C37.5269 33.8334 38.8139 33.7113 40.1133 33.6436C41.4602 33.5735 42.8088 33.5568 44.1543 33.5987C44.4993 33.6094 44.844 33.6242 45.1885 33.6426C48.8525 33.8388 52.4831 34.4751 55.9814 35.628C56.0292 35.6437 56.0773 35.658 56.125 35.6739C58.9916 36.6365 61.7098 37.9317 64.3057 39.4454C66.3246 40.6225 68.2693 41.9322 70.1533 43.3184C71.7012 44.4538 73.2122 45.6368 74.7148 46.8301C76.6386 48.3578 78.5499 49.901 80.5068 51.3848C81.0974 51.8327 81.6912 52.2764 82.292 52.711C83.0605 53.268 83.8385 53.8119 84.6279 54.337C85.1544 54.6872 85.686 55.0294 86.2236 55.3614C86.7613 55.6933 87.3052 56.0148 87.8555 56.3253C88.1305 56.4805 88.4071 56.6331 88.6855 56.7823C89.0094 56.956 89.3285 57.1226 89.6445 57.2794C90.4365 57.6721 91.2093 58.0015 91.9912 58.2178C92.4599 58.3475 92.9318 58.4362 93.4131 58.4737C93.6537 58.4924 93.8966 58.4986 94.1426 58.4903C94.3068 58.4847 94.4724 58.4728 94.6396 58.4542C94.7232 58.4449 94.8072 58.4337 94.8916 58.421C95.1081 58.3883 95.3272 58.3434 95.5498 58.2872C95.8473 58.212 96.1515 58.1161 96.4619 57.9952C97.1242 57.7329 97.7481 57.3905 98.3213 56.9727C98.4672 56.8664 98.6112 56.7571 98.75 56.6407L99.0381 56.3878C99.1725 56.2633 99.3016 56.1344 99.4258 56.002C100.296 55.0744 100.916 53.9599 101.317 52.7628C101.604 51.9076 101.778 51.0102 101.852 50.1085C101.866 49.9282 101.877 49.7478 101.884 49.5674C101.897 49.2067 101.895 48.8466 101.877 48.4893C101.839 47.7185 101.736 46.9288 101.576 46.1768C101.388 45.3588 101.022 43.9762 100.401 43.3839C99.99 42.9843 99.4922 42.8181 98.959 42.7911L98.7979 42.7872C98.7441 42.7872 98.6901 42.7886 98.6357 42.7911C97.5449 42.841 96.3523 43.3733 95.4648 43.6378C94.781 43.8422 94.0972 44.0737 93.3975 44.2042C93.1641 44.2477 92.9289 44.2795 92.6914 44.296C92.4005 44.3189 92.1075 44.3285 91.8135 44.3253C88.9712 44.2942 86.0362 43.064 84.0508 41.0616C83.8869 40.8998 83.7045 40.6998 83.5195 40.4766C83.4999 40.453 83.4786 40.4305 83.459 40.4063C83.4262 40.3658 83.394 40.3242 83.3613 40.2823C83.3406 40.2557 83.3194 40.2293 83.2988 40.2022C83.2685 40.1622 83.2389 40.1212 83.209 40.0801C83.1891 40.0529 83.169 40.0258 83.1494 39.9981C83.1235 39.9615 83.0986 39.9241 83.0732 39.8868C83.0511 39.8543 83.0284 39.8221 83.0068 39.7891C82.9847 39.7554 82.9639 39.7208 82.9424 39.6866C82.9149 39.6429 82.8876 39.5991 82.8613 39.5547C82.8464 39.5295 82.8319 39.504 82.8174 39.4786C82.7901 39.4309 82.7629 39.3832 82.7373 39.335C82.7205 39.3034 82.7054 39.2711 82.6895 39.2393C82.6665 39.1937 82.6433 39.1485 82.6221 39.1026C82.6094 39.0751 82.5979 39.0472 82.5859 39.0196C82.5635 38.9681 82.5413 38.9169 82.5215 38.8653C82.5119 38.8404 82.504 38.815 82.4951 38.7901C82.478 38.7423 82.4608 38.6951 82.4463 38.6475C82.4366 38.6156 82.4284 38.5836 82.4199 38.5518C82.4074 38.5048 82.3964 38.4579 82.3867 38.4112C82.3809 38.3831 82.3758 38.3551 82.3711 38.3272C82.3639 38.285 82.358 38.243 82.3535 38.2012C82.3497 38.1662 82.3475 38.1314 82.3457 38.0967C82.3433 38.0511 82.3426 38.0059 82.3438 37.961C82.3458 37.8774 82.3518 37.7952 82.3672 37.7149C82.3777 37.6601 82.3922 37.6093 82.4082 37.5616C82.4388 37.4703 82.4778 37.3911 82.5264 37.3233C82.5659 37.2683 82.6114 37.2211 82.6611 37.1797C82.7982 37.0658 82.9711 37.0002 83.165 36.9659C83.2309 36.9542 83.2991 36.9457 83.3691 36.9405C84.001 36.8934 84.7778 37.0802 85.2539 36.9903C85.3492 36.9715 85.4429 36.9516 85.5352 36.9297C85.7195 36.8861 85.898 36.8352 86.0732 36.7784C86.424 36.6646 86.7604 36.5233 87.0977 36.3477C87.1818 36.3039 87.2661 36.2581 87.3506 36.21C88.4999 35.5613 89.5698 34.7903 90.7588 34.2393C90.957 34.1475 91.1585 34.0615 91.3643 33.9835C91.5699 33.9054 91.7801 33.8356 91.9951 33.7745C92.5427 33.617 93.0963 33.5248 93.6504 33.4903C93.9275 33.473 94.2047 33.4703 94.4814 33.4805C95.1733 33.5061 95.862 33.6144 96.5371 33.7881C96.8074 33.8577 97.0755 33.9379 97.3408 34.0274C97.4731 34.072 97.6046 34.1189 97.7354 34.168C97.9974 34.2666 98.2566 34.3741 98.5117 34.4893C98.6902 34.5645 98.8684 34.6493 99.0469 34.7432C99.5051 34.977 99.9638 35.4614 100.478 35.5684C100.48 35.569 100.483 35.5698 100.485 35.5704C100.617 35.5986 100.724 35.5951 100.811 35.5684C100.868 35.5506 100.917 35.5225 100.958 35.4854C100.999 35.4483 101.033 35.4027 101.061 35.3506C101.13 35.2208 101.162 35.0511 101.18 34.8741C101.194 34.7324 101.201 34.5862 101.21 34.4522C101.211 34.4321 101.212 34.4119 101.213 34.3917C101.225 34.1909 101.234 33.9838 101.244 33.7745C101.25 33.6409 101.258 33.5064 101.267 33.3721C101.276 33.2332 101.286 33.0944 101.301 32.9571C101.308 32.8899 101.317 32.8232 101.326 32.7569C101.332 32.7124 101.34 32.6682 101.347 32.6241C101.357 32.5591 101.367 32.4944 101.38 32.4307L101.445 32.1573C101.53 31.8471 101.639 31.5392 101.772 31.2393C102.128 30.4394 102.648 29.6936 103.289 29.0958C103.369 29.0209 103.451 28.948 103.535 28.878C103.619 28.8081 103.705 28.7406 103.792 28.6758C104.054 28.4816 104.332 28.312 104.623 28.171C104.73 28.1195 104.839 28.0716 104.948 28.0274C104.994 28.0091 105.04 27.9938 105.086 27.9766C105.152 27.9519 105.217 27.9259 105.283 27.9034C105.336 27.8855 105.389 27.8702 105.442 27.8536C105.5 27.8355 105.557 27.8166 105.615 27.7999C105.669 27.7843 105.723 27.7704 105.777 27.7559C105.845 27.7379 105.912 27.7197 105.98 27.7032C106.014 27.6949 106.048 27.6867 106.082 27.6788C106.164 27.6597 106.246 27.6415 106.328 27.6241C106.37 27.6152 106.412 27.6062 106.454 27.5977C106.519 27.5846 106.584 27.572 106.648 27.5596C106.762 27.5381 106.876 27.5191 106.989 27.4991C107.181 27.4654 107.372 27.4302 107.564 27.3975C107.724 27.3704 107.882 27.3427 108.041 27.3135C108.343 27.258 108.644 27.1978 108.94 27.1221C109.393 27.0068 109.837 26.8591 110.265 26.6475C110.434 26.561 110.607 26.4679 110.78 26.3712C111.115 26.184 111.446 25.9771 111.731 25.7354C111.943 25.5568 112.143 25.3549 112.333 25.1446C112.428 25.0394 112.521 24.9317 112.611 24.8243C112.702 24.7169 112.791 24.6097 112.878 24.504C112.995 24.3582 113.109 24.1818 113.239 24.0255C113.272 23.9864 113.306 23.9489 113.341 23.9131C113.411 23.8416 113.487 23.7775 113.571 23.7286C113.614 23.7041 113.659 23.6835 113.706 23.6671ZM60.5254 60.7784C59.8013 57.7323 56.8498 56.3319 54.4805 57.2813C52.2051 58.2027 51.3963 61.5492 53.1826 64.0596C54.2733 65.5922 56.1444 66.3546 57.6582 65.8751C57.9026 65.7905 58.1279 65.6959 58.3535 65.5831C59.9613 64.7651 61.0801 63.0632 60.5254 60.7784Z" fill="white"/>
<path d="M21.0039 88.54C21.8594 88.1542 22.6164 88.1435 23.2998 88.6846V88.6855C23.6042 88.9296 23.8288 89.3312 23.9688 89.8828C24.108 90.4318 24.1526 91.0874 24.1299 91.7793C24.0845 93.1633 23.7742 94.6105 23.5195 95.4609C21.0274 103.783 11.6432 108.012 3.55664 105.286H3.55566C2.64666 104.982 1.51115 104.496 0.889648 103.887C0.586224 103.589 0.462273 103.319 0.470703 103.071C0.478095 102.854 0.590101 102.551 0.980469 102.167L1.16504 101.998C3.06005 100.373 5.25401 99.1562 7.5332 97.9658L9.49609 96.9463C11.6256 95.8332 13.7644 94.6504 15.6768 93.1016L16.1143 92.7373C16.4099 92.4843 16.7538 92.1384 17.1201 91.7646C17.4919 91.3853 17.8939 90.9695 18.3223 90.5557C19.1864 89.7208 20.1098 88.9414 21.0029 88.54H21.0039ZM84.7637 84.751C86.11 83.852 87.4894 83.9921 88.8584 84.6348C90.2488 85.2875 91.5587 86.4289 92.6807 87.4277V87.4287C97.2496 91.4825 102.441 93.9249 108.208 95.6865V95.6875C108.75 95.8549 109.904 96.0866 111.216 96.377C112.55 96.6724 114.092 97.0368 115.472 97.4805C116.871 97.9303 118.033 98.4399 118.665 98.9941C118.976 99.2671 119.105 99.5038 119.128 99.7002C119.149 99.8827 119.091 100.137 118.782 100.48C117.023 102.436 114.111 103.668 110.946 104.359C107.795 105.048 104.467 105.185 101.958 105.009C95.8077 104.576 90.1796 101.596 86.8467 96.2949L86.8457 96.293L86.6064 95.9287C86.0641 95.1201 85.6188 94.5684 85.2598 93.6475C84.8508 92.5823 84.4452 91.5687 84.2197 90.5137L84.2188 90.5117C83.9491 89.279 83.5925 87.7214 83.792 86.4453C83.9103 85.702 84.2099 85.1175 84.7617 84.752L84.7637 84.751Z" fill="white" stroke="white" stroke-width="0.940241"/>
<path d="M142.364 44.2749C143.914 45.298 145.545 46.2571 147.255 47.1523C148.966 48.0314 150.732 48.7987 152.554 49.4541C154.393 50.1095 156.271 50.629 158.189 51.0127C160.123 51.3803 162.09 51.5641 164.088 51.5641C164.855 51.5641 165.59 51.5162 166.294 51.4203C167.013 51.3244 167.636 51.1725 168.164 50.9647C168.707 50.7409 169.139 50.4532 169.459 50.1015C169.794 49.7339 169.962 49.2943 169.962 48.7827C169.962 48.3192 169.826 47.8556 169.555 47.392C169.283 46.9125 168.755 46.4569 167.972 46.0253C167.205 45.5937 166.126 45.1941 164.735 44.8264C163.344 44.4428 161.538 44.1071 159.316 43.8194C156.343 43.4357 153.761 42.9402 151.571 42.3328C149.381 41.7253 147.567 40.9501 146.128 40.0069C144.69 39.0638 143.619 37.9289 142.915 36.6021C142.212 35.2754 141.86 33.7008 141.86 31.8785C141.86 30.1362 142.252 28.5776 143.035 27.2029C143.835 25.8122 144.977 24.6373 146.464 23.6782C147.951 22.7191 149.757 21.9838 151.883 21.4722C154.009 20.9607 156.407 20.705 159.076 20.705C160.179 20.705 161.29 20.7689 162.409 20.8968C163.528 21.0087 164.631 21.1685 165.718 21.3763C166.805 21.5841 167.868 21.8319 168.907 22.1196C169.946 22.3914 170.921 22.6791 171.832 22.9828L176.532 20.3933H179.817V31.9025C178.107 30.8954 176.38 30.0083 174.638 29.241C172.911 28.4737 171.193 27.8343 169.483 27.3228C167.788 26.7953 166.126 26.4036 164.495 26.1479C162.881 25.8761 161.338 25.7403 159.868 25.7403C158.908 25.7403 158.037 25.8122 157.254 25.9561C156.487 26.0999 155.831 26.2917 155.288 26.5315C154.76 26.7713 154.353 27.059 154.065 27.3947C153.777 27.7144 153.633 28.0581 153.633 28.4257C153.633 28.9533 153.777 29.4328 154.065 29.8644C154.353 30.28 154.912 30.6717 155.743 31.0393C156.575 31.407 157.742 31.7666 159.244 32.1183C160.747 32.454 162.713 32.8216 165.143 33.2213C166.757 33.493 168.3 33.7807 169.77 34.0845C171.241 34.3882 172.608 34.7558 173.871 35.1874C175.133 35.603 176.268 36.1066 177.275 36.698C178.298 37.2895 179.17 38.0008 179.889 38.832C180.608 39.6633 181.16 40.6383 181.543 41.7573C181.943 42.8763 182.143 44.179 182.143 45.6657C182.143 47.6478 181.663 49.3502 180.704 50.7729C179.745 52.1956 178.45 53.3625 176.82 54.2736C175.189 55.1848 173.287 55.8561 171.113 56.2877C168.955 56.7193 166.677 56.9351 164.279 56.9351C162.042 56.9351 159.78 56.6954 157.494 56.2158C155.208 55.7522 153.018 54.9929 150.924 53.9379L147.088 56.3357H142.364V44.2749ZM187.01 42.7404C187.01 40.3266 187.498 38.2326 188.473 36.4582C189.464 34.6679 190.839 33.1893 192.597 32.0224C194.355 30.8395 196.441 29.9603 198.855 29.3849C201.269 28.8094 203.906 28.5217 206.768 28.5217C209.629 28.5217 212.267 28.8094 214.68 29.3849C217.094 29.9603 219.18 30.8395 220.939 32.0224C222.697 33.1893 224.064 34.6679 225.039 36.4582C226.03 38.2326 226.525 40.3266 226.525 42.7404C226.525 45.25 226.03 47.4 225.039 49.1904C224.064 50.9807 222.697 52.4513 220.939 53.6022C219.18 54.7532 217.094 55.5924 214.68 56.1199C212.267 56.6634 209.629 56.9351 206.768 56.9351C203.906 56.9351 201.269 56.6634 198.855 56.1199C196.441 55.5924 194.355 54.7532 192.597 53.6022C190.839 52.4513 189.464 50.9807 188.473 49.1904C187.498 47.4 187.01 45.25 187.01 42.7404ZM199.622 42.7404C199.622 44.211 199.806 45.5458 200.174 46.7446C200.558 47.9435 201.069 48.9666 201.709 49.8138C202.364 50.645 203.123 51.2924 203.986 51.756C204.866 52.2035 205.793 52.4273 206.768 52.4273C207.743 52.4273 208.662 52.2035 209.525 51.756C210.404 51.2924 211.164 50.645 211.803 49.8138C212.458 48.9666 212.97 47.9435 213.338 46.7446C213.721 45.5458 213.913 44.211 213.913 42.7404C213.913 41.2538 213.721 39.903 213.338 38.6882C212.97 37.4733 212.458 36.4343 211.803 35.5711C211.164 34.7079 210.404 34.0365 209.525 33.557C208.662 33.0774 207.743 32.8376 206.768 32.8376C205.793 32.8376 204.866 33.0774 203.986 33.557C203.123 34.0365 202.364 34.7079 201.709 35.5711C201.069 36.4343 200.558 37.4733 200.174 38.6882C199.806 39.903 199.622 41.2538 199.622 42.7404ZM236.38 50.1495V35.5471L230.098 30.1761L247.817 29.4568V34.6599C248.968 32.6938 250.479 31.1832 252.349 30.1282C254.235 29.0572 256.393 28.5217 258.823 28.5217C260.677 28.5217 262.324 28.8094 263.763 29.3849C265.217 29.9443 266.432 30.7915 267.407 31.9265C268.398 33.0454 269.15 34.4521 269.661 36.1465C270.173 37.825 270.428 39.7752 270.428 41.9971V50.1495L276.926 56H254.579L258.991 50.1495V42.5006C258.991 41.4776 258.895 40.5105 258.703 39.5993C258.511 38.6882 258.208 37.8889 257.792 37.2016C257.393 36.5142 256.873 35.9707 256.234 35.5711C255.594 35.1715 254.827 34.9716 253.932 34.9716C253.037 34.9716 252.213 35.1715 251.462 35.5711C250.711 35.9547 250.063 36.5222 249.52 37.2735C248.976 38.0088 248.553 38.9199 248.249 40.0069C247.961 41.0779 247.817 42.3088 247.817 43.6995V50.1495L252.229 56H229.882L236.38 50.1495ZM279.084 49.8138C279.084 48.535 279.348 47.432 279.876 46.5049C280.403 45.5617 281.114 44.7625 282.01 44.1071C282.905 43.4357 283.952 42.8922 285.151 42.4766C286.349 42.061 287.62 41.7413 288.963 41.5175C290.306 41.2777 291.68 41.1179 293.087 41.038C294.51 40.9421 295.893 40.8941 297.235 40.8941C297.987 40.8941 298.778 40.9101 299.609 40.9421C300.456 40.958 301.303 40.982 302.151 41.014C302.119 39.8631 302.015 38.84 301.839 37.9449C301.679 37.0337 301.399 36.2744 301 35.667C300.616 35.0436 300.073 34.572 299.369 34.2523C298.682 33.9166 297.795 33.7488 296.708 33.7488C296.004 33.7488 295.309 33.8367 294.622 34.0125C293.934 34.1884 293.311 34.4681 292.751 34.8517C292.192 35.2354 291.712 35.7309 291.313 36.3384C290.929 36.9298 290.681 37.6571 290.57 38.5203L280.955 37.2016C280.955 36.1146 281.17 35.1475 281.602 34.3003C282.049 33.4371 282.657 32.6858 283.424 32.0464C284.191 31.391 285.095 30.8395 286.134 30.3919C287.189 29.9443 288.316 29.5847 289.515 29.3129C290.729 29.0412 291.992 28.8414 293.303 28.7135C294.63 28.5856 295.948 28.5217 297.259 28.5217C298.842 28.5217 300.352 28.5936 301.791 28.7375C303.246 28.8653 304.596 29.1051 305.843 29.4568C307.09 29.8085 308.217 30.28 309.224 30.8715C310.247 31.4629 311.118 32.2142 311.838 33.1254C312.557 34.0365 313.108 35.1235 313.492 36.3863C313.892 37.6491 314.092 39.1198 314.092 40.7982V49.2383C314.092 50.5171 314.403 51.4123 315.027 51.9238C315.666 52.4353 316.529 52.6911 317.616 52.6911V55.4485C317.472 55.5924 317.225 55.7522 316.873 55.9281C316.537 56.0879 316.09 56.2398 315.53 56.3836C314.987 56.5435 314.339 56.6714 313.588 56.7673C312.837 56.8792 311.974 56.9351 310.998 56.9351C309.816 56.9351 308.753 56.8712 307.809 56.7433C306.866 56.6314 306.043 56.4236 305.34 56.1199C304.652 55.8322 304.077 55.4325 303.613 54.921C303.15 54.4095 302.798 53.7621 302.558 52.9788C301.759 53.6822 300.856 54.2816 299.849 54.7771C298.842 55.2727 297.771 55.6803 296.636 56C295.517 56.3197 294.358 56.5515 293.159 56.6954C291.976 56.8552 290.809 56.9351 289.658 56.9351C288.891 56.9351 288.1 56.8952 287.285 56.8152C286.469 56.7353 285.67 56.5914 284.887 56.3836C284.104 56.1918 283.36 55.9281 282.657 55.5924C281.954 55.2407 281.338 54.8011 280.811 54.2736C280.283 53.7461 279.86 53.1147 279.54 52.3794C279.236 51.6441 279.084 50.7889 279.084 49.8138ZM291.481 48.7588C291.481 49.1904 291.593 49.582 291.816 49.9337C292.04 50.2853 292.344 50.5811 292.728 50.8208C293.111 51.0606 293.559 51.2444 294.07 51.3723C294.582 51.5002 295.125 51.5641 295.701 51.5641C296.292 51.5641 296.948 51.5002 297.667 51.3723C298.386 51.2285 299.066 50.9967 299.705 50.677C300.36 50.3573 300.92 49.9417 301.383 49.4301C301.847 48.9026 302.111 48.2632 302.175 47.5119V45.0662C301.951 45.0502 301.735 45.0422 301.527 45.0422C301.335 45.0422 301.152 45.0422 300.976 45.0422C299.265 45.0422 297.811 45.1302 296.612 45.306C295.413 45.4658 294.43 45.7056 293.663 46.0253C292.911 46.345 292.36 46.7367 292.008 47.2002C291.657 47.6638 291.481 48.1833 291.481 48.7588ZM326.584 50.1495V35.5471L320.302 30.1761L338.021 29.4568V34.54C338.645 33.549 339.356 32.6778 340.155 31.9265C340.97 31.1752 341.834 30.5518 342.745 30.0562C343.672 29.5447 344.631 29.1611 345.622 28.9053C346.629 28.6495 347.636 28.5217 348.643 28.5217C349.97 28.5217 351.113 28.7455 352.072 29.193C353.047 29.6406 353.846 30.272 354.47 31.0873C355.093 31.8865 355.557 32.8376 355.861 33.9406C356.164 35.0436 356.316 36.2424 356.316 37.5372C356.316 37.9529 356.3 38.3765 356.268 38.8081C356.236 39.2397 356.172 39.6633 356.076 40.0789L347.325 40.8701C347.388 40.6144 347.42 40.3746 347.42 40.1508C347.436 39.911 347.444 39.6792 347.444 39.4554C347.444 38.8001 347.364 38.2006 347.205 37.6571C347.061 37.1136 346.837 36.6501 346.533 36.2664C346.246 35.8668 345.87 35.5631 345.406 35.3553C344.959 35.1315 344.431 35.0196 343.824 35.0196C343.184 35.0196 342.601 35.1475 342.073 35.4032C341.546 35.659 341.066 36.0027 340.635 36.4343C340.203 36.8659 339.82 37.3694 339.484 37.9449C339.164 38.5043 338.892 39.0958 338.669 39.7192C338.461 40.3266 338.301 40.9421 338.189 41.5655C338.077 42.1889 338.021 42.7724 338.021 43.3158V49.9097L346.365 56H320.326L326.584 50.1495ZM145.457 96.9097V74.7064L138.719 68.6161H183.246L182.766 80.509L173.199 74.107H158.093V84.4413H173.487V89.7164H158.093V96.9097L167.948 103H138.719L145.457 96.9097ZM197.273 73.3877C196.409 73.3877 195.594 73.2278 194.827 72.9081C194.076 72.5724 193.42 72.1248 192.861 71.5654C192.301 71.0059 191.854 70.3505 191.518 69.5992C191.198 68.8319 191.038 68.0167 191.038 67.1535C191.038 66.2903 191.198 65.483 191.518 64.7317C191.854 63.9645 192.301 63.3011 192.861 62.7416C193.42 62.1661 194.076 61.7185 194.827 61.3988C195.594 61.0632 196.409 60.8953 197.273 60.8953C198.136 60.8953 198.943 61.0632 199.694 61.3988C200.462 61.7185 201.125 62.1661 201.685 62.7416C202.26 63.3011 202.708 63.9645 203.027 64.7317C203.363 65.483 203.531 66.2903 203.531 67.1535C203.531 68.0167 203.363 68.8319 203.027 69.5992C202.708 70.3505 202.26 71.0059 201.685 71.5654C201.125 72.1248 200.462 72.5724 199.694 72.9081C198.943 73.2278 198.136 73.3877 197.273 73.3877ZM192.213 97.1495V82.5471L185.931 77.1761L203.411 76.4568V97.1495L209.909 103H185.715L192.213 97.1495ZM217.534 97.1495V82.5471L211.252 77.1761L228.971 76.4568V81.6599C230.122 79.6938 231.633 78.1832 233.503 77.1282C235.389 76.0572 237.547 75.5217 239.977 75.5217C241.831 75.5217 243.478 75.8094 244.916 76.3849C246.371 76.9443 247.586 77.7915 248.561 78.9265C249.552 80.0454 250.303 81.4521 250.815 83.1465C251.326 84.825 251.582 86.7752 251.582 88.9971V97.1495L258.08 103H235.733L240.145 97.1495V89.5006C240.145 88.4776 240.049 87.5105 239.857 86.5993C239.665 85.6882 239.361 84.8889 238.946 84.2016C238.546 83.5142 238.027 82.9707 237.387 82.5711C236.748 82.1715 235.981 81.9716 235.085 81.9716C234.19 81.9716 233.367 82.1715 232.616 82.5711C231.864 82.9547 231.217 83.5222 230.673 84.2735C230.13 85.0088 229.706 85.9199 229.403 87.0069C229.115 88.0779 228.971 89.3088 228.971 90.6995V97.1495L233.383 103H211.036L217.534 97.1495ZM260.238 96.8138C260.238 95.535 260.502 94.432 261.029 93.5049C261.557 92.5617 262.268 91.7625 263.163 91.1071C264.058 90.4357 265.105 89.8922 266.304 89.4766C267.503 89.061 268.774 88.7413 270.117 88.5175C271.459 88.2777 272.834 88.1179 274.241 88.038C275.663 87.9421 277.046 87.8941 278.389 87.8941C279.14 87.8941 279.931 87.9101 280.763 87.9421C281.61 87.958 282.457 87.982 283.304 88.014C283.272 86.8631 283.168 85.84 282.993 84.9449C282.833 84.0337 282.553 83.2744 282.153 82.667C281.77 82.0436 281.226 81.572 280.523 81.2523C279.836 80.9166 278.948 80.7488 277.861 80.7488C277.158 80.7488 276.463 80.8367 275.775 81.0125C275.088 81.1884 274.465 81.4681 273.905 81.8517C273.346 82.2354 272.866 82.7309 272.466 83.3384C272.083 83.9298 271.835 84.6571 271.723 85.5203L262.108 84.2016C262.108 83.1146 262.324 82.1475 262.756 81.3003C263.203 80.4371 263.811 79.6858 264.578 79.0464C265.345 78.391 266.248 77.8395 267.287 77.3919C268.342 76.9443 269.469 76.5847 270.668 76.3129C271.883 76.0412 273.146 75.8414 274.457 75.7135C275.783 75.5856 277.102 75.5217 278.413 75.5217C279.995 75.5217 281.506 75.5936 282.945 75.7375C284.399 75.8653 285.75 76.1051 286.997 76.4568C288.244 76.8085 289.371 77.28 290.378 77.8715C291.401 78.4629 292.272 79.2142 292.991 80.1254C293.711 81.0365 294.262 82.1235 294.646 83.3863C295.045 84.6491 295.245 86.1198 295.245 87.7982V96.2383C295.245 97.5171 295.557 98.4123 296.18 98.9238C296.82 99.4353 297.683 99.6911 298.77 99.6911V102.449C298.626 102.592 298.378 102.752 298.027 102.928C297.691 103.088 297.243 103.24 296.684 103.384C296.14 103.543 295.493 103.671 294.742 103.767C293.99 103.879 293.127 103.935 292.152 103.935C290.969 103.935 289.906 103.871 288.963 103.743C288.02 103.631 287.197 103.424 286.493 103.12C285.806 102.832 285.231 102.433 284.767 101.921C284.303 101.409 283.952 100.762 283.712 99.9788C282.913 100.682 282.01 101.282 281.002 101.777C279.995 102.273 278.924 102.68 277.789 103C276.671 103.32 275.512 103.551 274.313 103.695C273.13 103.855 271.963 103.935 270.812 103.935C270.045 103.935 269.253 103.895 268.438 103.815C267.623 103.735 266.824 103.591 266.04 103.384C265.257 103.192 264.514 102.928 263.811 102.592C263.107 102.241 262.492 101.801 261.964 101.274C261.437 100.746 261.013 100.115 260.693 99.3794C260.39 98.6441 260.238 97.7889 260.238 96.8138ZM272.634 95.7588C272.634 96.1904 272.746 96.582 272.97 96.9337C273.194 97.2853 273.497 97.5811 273.881 97.8208C274.265 98.0606 274.712 98.2444 275.224 98.3723C275.735 98.5002 276.279 98.5641 276.854 98.5641C277.446 98.5641 278.101 98.5002 278.821 98.3723C279.54 98.2285 280.219 97.9967 280.859 97.677C281.514 97.3573 282.073 96.9417 282.537 96.4301C283.001 95.9026 283.264 95.2632 283.328 94.5119V92.0662C283.105 92.0502 282.889 92.0422 282.681 92.0422C282.489 92.0422 282.305 92.0422 282.129 92.0422C280.419 92.0422 278.964 92.1302 277.765 92.306C276.567 92.4658 275.584 92.7056 274.816 93.0253C274.065 93.345 273.513 93.7367 273.162 94.2002C272.81 94.6638 272.634 95.1833 272.634 95.7588ZM307.737 97.1495V82.5471L301.455 77.1761L319.175 76.4568V81.6599C320.326 79.6938 321.836 78.1832 323.707 77.1282C325.593 76.0572 327.751 75.5217 330.181 75.5217C332.035 75.5217 333.681 75.8094 335.12 76.3849C336.575 76.9443 337.789 77.7915 338.765 78.9265C339.756 80.0454 340.507 81.4521 341.018 83.1465C341.53 84.825 341.786 86.7752 341.786 88.9971V97.1495L348.284 103H325.936L330.348 97.1495V89.5006C330.348 88.4776 330.252 87.5105 330.061 86.5993C329.869 85.6882 329.565 84.8889 329.149 84.2016C328.75 83.5142 328.23 82.9707 327.591 82.5711C326.952 82.1715 326.184 81.9716 325.289 81.9716C324.394 81.9716 323.571 82.1715 322.819 82.5711C322.068 82.9547 321.421 83.5222 320.877 84.2735C320.334 85.0088 319.91 85.9199 319.606 87.0069C319.319 88.0779 319.175 89.3088 319.175 90.6995V97.1495L323.587 103H301.24L307.737 97.1495ZM350.585 89.5246C350.585 87.2547 351.073 85.2486 352.048 83.5062C353.039 81.7638 354.398 80.3012 356.124 79.1183C357.851 77.9354 359.889 77.0402 362.239 76.4328C364.588 75.8254 367.13 75.5217 369.863 75.5217C372.485 75.5217 374.755 75.7854 376.673 76.3129C378.607 76.8244 380.206 77.4638 381.469 78.2311L386.48 75.3298V86.935L380.486 87.6543C380.182 86.6313 379.766 85.6802 379.239 84.801C378.711 83.9218 378.072 83.1625 377.321 82.5231C376.585 81.8837 375.746 81.3882 374.803 81.0365C373.86 80.6689 372.829 80.485 371.71 80.485C370.687 80.485 369.664 80.6289 368.641 80.9166C367.634 81.2044 366.722 81.6999 365.907 82.4032C365.108 83.0906 364.453 84.0177 363.941 85.1846C363.445 86.3356 363.198 87.7822 363.198 89.5246C363.198 90.9952 363.453 92.282 363.965 93.385C364.493 94.4879 365.18 95.4151 366.027 96.1664C366.89 96.9017 367.873 97.4532 368.976 97.8208C370.079 98.1885 371.222 98.3723 372.405 98.3723C373.412 98.3723 374.475 98.3164 375.594 98.2045C376.729 98.0766 377.84 97.8448 378.927 97.5091C380.03 97.1734 381.077 96.7099 382.068 96.1184C383.059 95.527 383.922 94.7597 384.658 93.8166L387.103 95.7348C386.624 96.9496 385.881 98.0606 384.873 99.0677C383.882 100.075 382.676 100.938 381.253 101.657C379.846 102.377 378.248 102.936 376.457 103.336C374.683 103.735 372.781 103.935 370.751 103.935C367.554 103.935 364.708 103.623 362.215 103C359.721 102.377 357.611 101.457 355.885 100.243C354.158 99.0277 352.839 97.5251 351.928 95.7348C351.033 93.9285 350.585 91.8584 350.585 89.5246ZM392.067 90.124C392.067 88.1738 392.346 86.4554 392.906 84.9688C393.481 83.4822 394.249 82.2034 395.208 81.1324C396.183 80.0454 397.31 79.1423 398.589 78.423C399.883 77.7036 401.258 77.1282 402.713 76.6966C404.167 76.265 405.662 75.9612 407.197 75.7854C408.747 75.6096 410.25 75.5217 411.704 75.5217C414.022 75.5217 416.18 75.7774 418.178 76.2889C420.192 76.8005 421.935 77.6237 423.405 78.7586C424.876 79.8936 426.027 81.3882 426.858 83.2424C427.705 85.0807 428.129 87.3266 428.129 89.9802H404.703C404.767 91.6426 405.047 93.0173 405.542 94.1043C406.054 95.1753 406.709 96.0305 407.508 96.6699C408.308 97.2933 409.219 97.7329 410.242 97.9887C411.265 98.2444 412.32 98.3723 413.407 98.3723C414.382 98.3723 415.437 98.3164 416.572 98.2045C417.707 98.0926 418.842 97.8848 419.977 97.5811C421.112 97.2614 422.199 96.8298 423.238 96.2863C424.277 95.7428 425.18 95.0314 425.947 94.1523L428.393 96.0705C427.993 97.0456 427.434 97.9167 426.714 98.684C425.995 99.4513 425.172 100.131 424.245 100.722C423.318 101.298 422.311 101.793 421.224 102.209C420.153 102.608 419.05 102.936 417.915 103.192C416.78 103.448 415.645 103.631 414.51 103.743C413.375 103.871 412.288 103.935 411.249 103.935C408.324 103.935 405.678 103.631 403.312 103.024C400.962 102.417 398.948 101.529 397.27 100.362C395.607 99.1796 394.321 97.7329 393.409 96.0225C392.514 94.2961 392.067 92.33 392.067 90.124ZM416.524 86.2397C416.524 85.0568 416.412 84.0657 416.188 83.2664C415.98 82.4512 415.661 81.7958 415.229 81.3003C414.798 80.8047 414.254 80.4531 413.599 80.2452C412.959 80.0215 412.208 79.9096 411.345 79.9096C409.522 79.9096 408.076 80.461 407.005 81.564C405.934 82.667 405.23 84.2255 404.895 86.2397H416.524Z" fill="white"/>
</svg>
